<svg width="39" height="20" viewBox="0 0 39 20" fill="none" xmlns="http://www.w3.org/2000/svg">
<path fill-rule="evenodd" clip-rule="evenodd" d="M16.6373 0.113819C16.3438 0.245925 16.0214 0.637912 15.9569 0.941016C15.9241 1.09532 16.1425 2.39426 16.6025 4.7809C16.9849 6.76462 17.3151 8.44956 17.3364 8.52537C17.3721 8.65236 17.5418 8.66315 19.498 8.66315C21.4543 8.66315 21.6239 8.65236 21.6597 8.52537C21.6809 8.44956 22.0106 6.76792 22.3921 4.7883C22.9921 1.67516 23.0752 1.14823 23.0073 0.88748C22.9198 0.551626 22.6184 0.213882 22.2928 0.0868149C21.9573 -0.0441888 16.9351 -0.0202552 16.6373 0.113819ZM0.636707 1.73656C0.440458 1.83694 0.263482 2.01062 0.155987 2.2083C-0.00636135 2.50676 -0.0130655 2.59045 0.00940872 4.03724C0.0315783 5.45867 0.0436153 5.56874 0.202916 5.79957C0.556257 6.31146 0.458361 6.3013 5.0393 6.3013H9.18455L11.0654 3.98142C12.0998 2.70547 12.9462 1.64264 12.9462 1.61957C12.9462 1.59651 10.2465 1.57761 6.94672 1.57769C1.08307 1.57777 0.940224 1.58131 0.636707 1.73656ZM26.0498 1.61957C26.0498 1.64264 26.8963 2.70547 27.9307 3.98142L29.8115 6.3013H33.9694C38.6527 6.3013 38.4849 6.32201 38.8285 5.70265C38.9875 5.416 38.9987 5.30114 38.9999 3.94638C39.001 2.54542 38.9948 2.48566 38.8128 2.16477C38.4639 1.5495 38.7886 1.57761 32.0288 1.57761C28.7404 1.57761 26.0498 1.59651 26.0498 1.61957ZM10.3179 8.5656C8.2647 11.0986 5.94406 13.9614 5.16082 14.9274C3.60316 16.8487 3.47852 17.0716 3.64354 17.6409C3.71972 17.9035 3.90035 18.1045 4.68764 18.8022C5.70416 19.7029 6.14534 20 6.46638 20C7.00531 20 7.17923 19.8107 11.1677 14.8827C13.2879 12.263 15.0747 10.058 15.1383 9.98263C15.2427 9.85903 15.1997 9.56324 14.6985 6.95159C14.393 5.35987 14.1223 4.03566 14.097 4.00889C14.0716 3.98213 12.371 6.0326 10.3179 8.5656ZM24.8722 4.03267C24.8535 4.08967 24.5915 5.42081 24.2899 6.99072C23.7949 9.56797 23.7529 9.85847 23.8574 9.98239C23.9211 10.0579 25.6945 12.2453 27.7983 14.8433C29.902 17.4413 31.6925 19.6286 31.7771 19.7039C32.0394 19.9376 32.4853 20.0373 32.8132 19.9358C33.1194 19.841 35.02 18.2559 35.236 17.9153C35.4225 17.6212 35.4446 17.1699 35.2892 16.8343C35.0985 16.4228 24.9136 3.90639 24.8722 4.03267Z" fill="#34353F"/>
</svg>
