<svg width="78" height="40" viewBox="0 0 78 40" fill="none" xmlns="http://www.w3.org/2000/svg">
<path fill-rule="evenodd" clip-rule="evenodd" d="M33.2746 0.227638C32.6876 0.491849 32.0427 1.27582 31.9138 1.88203C31.8482 2.19065 32.285 4.78852 33.205 9.56181C33.9697 13.5292 34.6303 16.8991 34.6728 17.0507C34.7442 17.3047 35.0836 17.3263 38.9961 17.3263C42.9086 17.3263 43.2479 17.3047 43.3193 17.0507C43.3619 16.8991 44.0212 13.5358 44.7842 9.57661C45.9843 3.35031 46.1505 2.29646 46.0146 1.77496C45.8395 1.10325 45.2369 0.427764 44.5857 0.17363C43.9146 -0.0883775 33.8702 -0.0405104 33.2746 0.227638ZM1.27341 3.47313C0.880915 3.67388 0.526964 4.02123 0.311973 4.41661C-0.0127227 5.01352 -0.0261311 5.1809 0.0188174 8.07447C0.0631565 10.9173 0.0872306 11.1375 0.405832 11.5991C1.11251 12.6229 0.916721 12.6026 10.0786 12.6026H18.3691L22.1308 7.96284C24.1996 5.41094 25.8924 3.28528 25.8924 3.23915C25.8924 3.19301 20.493 3.15522 13.8934 3.15538C2.16614 3.15554 1.88045 3.16262 1.27341 3.47313ZM52.0997 3.23915C52.0997 3.28528 53.7925 5.41094 55.8614 7.96284L59.623 12.6026H67.9388C77.3053 12.6026 76.9698 12.644 77.657 11.4053C77.975 10.832 77.9974 10.6023 77.9998 7.89277C78.0021 5.09083 77.9896 4.97132 77.6256 4.32953C76.9277 3.09901 77.5771 3.15522 64.0575 3.15522C57.4807 3.15522 52.0997 3.19301 52.0997 3.23915ZM20.6357 17.1312C16.5294 22.1972 11.8881 27.9228 10.3216 29.8548C7.20632 33.6975 6.95704 34.1433 7.28707 35.2818C7.43944 35.8071 7.8007 36.2089 9.37527 37.6043C11.4083 39.4058 12.2907 40 12.9328 40C14.0106 40 14.3585 39.6213 22.3354 29.7653C26.5758 24.526 30.1494 20.1159 30.2766 19.9653C30.4854 19.7181 30.3995 19.1265 29.397 13.9032C28.786 10.7197 28.2447 8.07132 28.1939 8.01779C28.1432 7.96425 24.742 12.0652 20.6357 17.1312ZM49.7444 8.06534C49.7069 8.17934 49.1829 10.8416 48.5798 13.9814C47.5898 19.1359 47.5058 19.717 47.7149 19.9648C47.8422 20.1158 51.3891 24.4906 55.5965 29.6866C59.804 34.8827 63.385 39.2573 63.5541 39.4078C64.0789 39.8751 64.9707 40.0746 65.6265 39.8717C66.2388 39.6821 70.04 36.5119 70.4721 35.8306C70.8449 35.2425 70.8893 34.3398 70.5784 33.6687C70.197 32.8455 49.8273 7.81278 49.7444 8.06534Z" fill="#FFB254"/>
</svg>
