<svg width="37" height="37" viewBox="0 0 37 37" fill="none" xmlns="http://www.w3.org/2000/svg">
<path fill-rule="evenodd" clip-rule="evenodd" d="M22.619 5.19731C14.95 8.48996 10.6541 10.4106 10.4578 10.6348C10.2907 10.8256 7.87614 16.2925 5.09186 22.7837C0.334142 33.8759 -0.272165 35.2531 0.177074 35.9469C0.250475 36.0603 0.352055 36.1554 0.468311 36.2716C0.584554 36.3879 0.679668 36.4894 0.793008 36.5628C1.48707 37.0124 2.86463 36.4067 13.9634 31.6521C21.6429 28.3623 25.9049 26.4602 26.1537 26.2112C26.4028 25.9623 28.3049 21.7003 31.5947 14.0208C36.3493 2.92205 36.955 1.54449 36.5054 0.850427C36.432 0.737087 36.3304 0.641973 36.2142 0.52573C36.0994 0.410918 36.0047 0.310563 35.8922 0.237707C35.193 -0.215095 33.8059 0.394345 22.619 5.19731ZM18.3501 22.3272C20.5468 22.3272 22.3276 20.5464 22.3276 18.3497C22.3276 16.1529 20.5468 14.3721 18.3501 14.3721C16.1534 14.3721 14.3726 16.1529 14.3726 18.3497C14.3726 20.5464 16.1534 22.3272 18.3501 22.3272Z" fill="#FF1648"/>
</svg>
