<svg width="24" height="24" viewBox="0 0 24 24" fill="none" xmlns="http://www.w3.org/2000/svg">
<path d="M21.8438 0H13.4062C12.2431 0 11.25 1.03997 11.25 2.20312V9.23438C11.25 10.3975 12.2431 11.3438 13.4062 11.3438H21.8438C23.0069 11.3438 24 10.3975 24 9.23438V2.20312C24 1.03997 23.0069 0 21.8438 0ZM15.5156 7.82812C15.5156 8.21677 15.2011 8.53125 14.8125 8.53125C14.4239 8.53125 14.1094 8.21677 14.1094 7.82812V6.42188C14.1094 6.03323 14.4239 5.71875 14.8125 5.71875C15.2011 5.71875 15.5156 6.03323 15.5156 6.42188V7.82812ZM18.3281 7.82812C18.3281 8.21677 18.0136 8.53125 17.625 8.53125C17.2364 8.53125 16.9219 8.21677 16.9219 7.82812V5.01562C16.9219 4.62698 17.2364 4.3125 17.625 4.3125C18.0136 4.3125 18.3281 4.62698 18.3281 5.01562V7.82812ZM21.1406 7.82812C21.1406 8.21677 20.8261 8.53125 20.4375 8.53125C20.0489 8.53125 19.7344 8.21677 19.7344 7.82812V3.60938C19.7344 3.22073 20.0489 2.90625 20.4375 2.90625C20.8261 2.90625 21.1406 3.22073 21.1406 3.60938V7.82812Z" fill="#FF1648"/>
<path d="M5.625 4.3125C4.07386 4.3125 2.8125 5.57386 2.8125 7.125C2.8125 8.67614 4.07386 9.9375 5.625 9.9375C7.17614 9.9375 8.4375 8.67614 8.4375 7.125C8.4375 5.57386 7.17614 4.3125 5.625 4.3125Z" fill="#34353F"/>
<path d="M8.09141 10.5312C7.39602 11.0362 6.54819 11.3429 5.6249 11.3429C4.7016 11.3429 3.85377 11.0362 3.15838 10.5312C1.53196 11.3325 0.33524 12.8778 0.0605061 14.7349C0.0222093 14.9934 0.133537 15.227 0.314897 15.3823C0.94335 13.8407 2.45371 12.7492 4.21865 12.7492C5.9488 12.7492 7.43577 13.7979 8.08583 15.2913C8.55857 14.2053 9.48013 13.3712 10.6106 12.9884C10.0537 11.9274 9.17099 11.063 8.09141 10.5312Z" fill="#34353F"/>
<path d="M4.21875 14.1562C2.66761 14.1562 1.40625 15.4176 1.40625 16.9688C1.40625 18.5199 2.66761 19.7812 4.21875 19.7812C5.76989 19.7812 7.03125 18.5199 7.03125 16.9688C7.03125 15.4176 5.76989 14.1562 4.21875 14.1562Z" fill="#34353F"/>
<path d="M11.9531 14.1562C10.402 14.1562 9.14062 15.4176 9.14062 16.9688C9.14062 18.5199 10.402 19.7812 11.9531 19.7812C13.5043 19.7812 14.8125 18.5199 14.8125 16.9688C14.8125 15.4176 13.5043 14.1562 11.9531 14.1562Z" fill="#34353F"/>
<path d="M19.7344 14.1562C18.1832 14.1562 16.9219 15.4176 16.9219 16.9688C16.9219 18.5199 18.1832 19.7812 19.7344 19.7812C21.2855 19.7812 22.5938 18.5199 22.5938 16.9688C22.5938 15.4176 21.2855 14.1562 19.7344 14.1562Z" fill="#34353F"/>
<path d="M6.32813 22.5938C6.32813 21.7428 6.52964 20.9426 6.87281 20.221C6.14555 20.8157 5.22933 21.1875 4.21875 21.1875C2.9768 21.1875 1.86998 20.6381 1.09725 19.7812C0.422625 20.5293 0 21.5093 0 22.5938V23.2969C0 23.6855 0.314484 24 0.703125 24H6.45764C6.37884 23.779 6.32813 23.5446 6.32813 23.2969V22.5938Z" fill="#34353F"/>
<path d="M15.1215 19.7812C14.3488 20.6381 13.1951 21.1875 11.9531 21.1875C10.7112 21.1875 9.60436 20.6381 8.83163 19.7812C8.157 20.5293 7.73438 21.5093 7.73438 22.5938V23.2969C7.73438 23.6855 8.04886 24 8.4375 24H15.5156C15.9043 24 16.2188 23.6855 16.2188 23.2969V22.5938C16.2188 21.5093 15.7961 20.5293 15.1215 19.7812Z" fill="#34353F"/>
<path d="M22.9028 19.7812C22.13 20.6381 20.9763 21.1875 19.7344 21.1875C18.7238 21.1875 17.8076 20.8157 17.0803 20.221C17.4235 20.9426 17.625 21.7428 17.625 22.5938V23.2969C17.625 23.5446 17.5743 23.779 17.4955 24H23.2969C23.6855 24 24 23.6855 24 23.2969V22.5938C24 21.5093 23.5774 20.5293 22.9028 19.7812Z" fill="#34353F"/>
</svg>
