<svg width="77" height="77" viewBox="0 0 77 77" fill="none" xmlns="http://www.w3.org/2000/svg">
<path fill-rule="evenodd" clip-rule="evenodd" d="M35.4888 0.0722796C29.9199 0.60602 25.6869 1.79088 21.0608 4.11106C14.9725 7.16445 9.32706 12.3449 5.61414 18.2856C2.93358 22.5743 0.977986 28.1196 0.188333 33.6705C-0.0627775 35.4357 -0.0627775 41.3612 0.188333 43.1265C0.817234 47.5476 1.98573 51.4203 3.81134 55.1342C5.87681 59.3359 7.89995 62.1588 11.24 65.499C14.5436 68.8025 17.4105 70.8654 21.4548 72.8494C24.2767 74.2337 26.0988 74.9075 28.9596 75.6251C36.4665 77.508 43.9954 77.1469 51.3297 74.5523C53.5681 73.7606 57.4487 71.814 59.429 70.4895C67.8347 64.8682 73.7106 56.3448 75.8615 46.6537C76.3625 44.396 76.6199 42.286 76.713 39.6743C76.9408 33.2729 75.6245 27.1805 72.7764 21.4537C70.9062 17.6934 68.8243 14.7462 65.901 11.7214C62.6808 8.38893 59.4446 6.03288 55.2263 3.95C50.7781 1.75335 46.6365 0.581254 41.7177 0.126764C40.1885 -0.0144757 36.7122 -0.0449451 35.4888 0.0722796ZM42.0969 6.88543C52.7945 8.20792 62.2139 14.9238 66.8828 24.5574C70.0511 31.095 70.8782 38.845 69.1608 45.9033C66.5989 56.4313 58.6764 65.0421 48.397 68.4712C44.8655 69.6493 42.2033 70.069 38.2694 70.0679C28.7522 70.0654 20.0813 65.9807 13.8973 58.5864C10.101 54.047 7.57529 48.1763 6.82812 42.1548C6.62534 40.5195 6.62489 36.2815 6.82752 34.6422C8.03954 24.8373 13.7003 16.1753 22.2198 11.0886C25.7547 8.97806 30.2762 7.42472 34.4381 6.89143C35.8718 6.70756 40.6283 6.70396 42.0969 6.88543Z" fill="black"/>
</svg>
