<svg width="63" height="63" viewBox="0 0 63 63" fill="none" xmlns="http://www.w3.org/2000/svg">
<path d="M28.9274 21.4307L22.377 26.049L22.2356 31.9397L22.0942 37.8775L28.6918 42.4486C32.3204 44.9463 35.4307 46.9727 35.6663 46.9727C36.1847 46.9255 40.9915 39.8567 40.7559 39.4326C40.6616 39.2441 38.3054 37.5476 35.5721 35.6626C32.8388 33.7776 30.6239 32.1753 30.6239 32.1282C30.6239 32.081 32.8388 30.4788 35.5721 28.5938C38.3054 26.7088 40.6616 24.9651 40.803 24.7766C41.0386 24.3996 36.5617 17.5193 35.8077 17.0481C35.6192 16.9538 32.5089 18.9331 28.9274 21.4307Z" fill="black"/>
<path d="M28.8332 21.3863L22.2828 26.0045L22.1414 31.8952L22 37.833C27.7789 33.8905 30.624 32.1278 30.624 32.1278C30.624 32.1278 32.6032 30.714 35.3365 28.829C38.0698 26.944 40.8502 25.0119 40.9915 24.8234C41.2272 24.4464 36.4675 17.4749 35.7135 17.0036C35.525 16.9093 32.4147 18.8886 28.8332 21.3863Z" fill="#FF1648"/>
<rect x="1" y="1" width="61" height="61" rx="30.5" stroke="#FF1648" stroke-width="2"/>
</svg>
