<svg width="18" height="23" viewBox="0 0 18 23" fill="none" xmlns="http://www.w3.org/2000/svg">
<path d="M9.60351 8.47834C9.40549 8.46034 9.19847 8.45134 9.00046 8.45134C8.87445 8.45134 8.75744 8.45134 8.63143 8.46034C7.15645 8.5302 5.7336 9.02742 4.53613 9.89145L0.080809 1.79985C0.0268056 1.69684 -0.00065325 1.58199 0.000918352 1.46569C0.00248995 1.34939 0.0330423 1.23532 0.0898096 1.13381C0.215819 0.92679 0.431835 0.800781 0.674852 0.800781H4.72515C4.96817 0.800781 5.18418 0.92679 5.31019 1.13381L9.09947 7.61428L9.60351 8.47834Z" fill="black"/>
<path d="M17.9201 1.79985L13.4648 9.89145C12.8347 9.43241 12.1327 9.07239 11.3766 8.82937L9.8645 6.23718L12.6817 1.15181C12.7414 1.04651 12.8277 0.958698 12.9319 0.897111C13.0362 0.835524 13.1547 0.802312 13.2758 0.800781H17.326C17.5691 0.800781 17.7851 0.92679 17.9111 1.13381C18.0281 1.34082 18.0281 1.59284 17.9201 1.79985Z" fill="black"/>
<path d="M9.00041 9.80078C5.52616 9.80078 2.69995 12.627 2.69995 16.1012C2.69995 19.5755 5.52616 22.4017 9.00041 22.4017C12.4747 22.4017 15.3009 19.5755 15.3009 16.1012C15.3009 12.627 12.4747 9.80078 9.00041 9.80078ZM12.409 15.8825L11.184 17.1381L11.4747 18.9184C11.4949 19.0434 11.4795 19.1715 11.4303 19.2881C11.3812 19.4048 11.3002 19.5052 11.1967 19.5781C11.0932 19.6509 10.9713 19.6932 10.8449 19.7C10.7185 19.7069 10.5927 19.6781 10.4819 19.6169L9.00041 18.7987L7.5189 19.6178C7.40805 19.6797 7.28198 19.709 7.15518 19.7024C7.02839 19.6958 6.90604 19.6536 6.80222 19.5805C6.69839 19.5074 6.61731 19.4065 6.56831 19.2894C6.5193 19.1723 6.50437 19.0437 6.52523 18.9184L6.81595 17.1381L5.59096 15.8825C5.50433 15.7937 5.44387 15.6826 5.41622 15.5617C5.38858 15.4407 5.39482 15.3144 5.43426 15.1968C5.47369 15.0791 5.54481 14.9746 5.63978 14.8947C5.73475 14.8148 5.84991 14.7626 5.97259 14.7439L7.63861 14.4892L8.38927 12.8898C8.61068 12.4155 9.38924 12.4155 9.61066 12.8898L10.3613 14.4892L12.0273 14.7439C12.15 14.7626 12.2652 14.8148 12.3601 14.8947C12.4551 14.9746 12.5262 15.0791 12.5657 15.1968C12.6051 15.3144 12.6113 15.4407 12.5837 15.5617C12.5561 15.6826 12.4956 15.7937 12.409 15.8825Z" fill="black"/>
</svg>
