<svg width="63" height="63" viewBox="0 0 63 63" fill="none" xmlns="http://www.w3.org/2000/svg">
<path d="M34.0726 21.4307L40.623 26.049L40.7644 31.9397L40.9058 37.8775L34.3082 42.4486C30.6796 44.9463 27.5693 46.9727 27.3337 46.9727C26.8153 46.9255 22.0085 39.8567 22.2441 39.4326C22.3384 39.2441 24.6946 37.5476 27.4279 35.6626C30.1612 33.7776 32.3761 32.1753 32.3761 32.1282C32.3761 32.081 30.1612 30.4788 27.4279 28.5938C24.6946 26.7088 22.3384 24.9651 22.197 24.7766C21.9614 24.3996 26.4383 17.5193 27.1923 17.0481C27.3808 16.9538 30.4911 18.9331 34.0726 21.4307Z" fill="black"/>
<path d="M34.1668 21.3863L40.7172 26.0045L40.8586 31.8952L41 37.833C35.2211 33.8905 32.376 32.1278 32.376 32.1278C32.376 32.1278 30.3968 30.714 27.6635 28.829C24.9302 26.944 22.1498 25.0119 22.0085 24.8234C21.7728 24.4464 26.5325 17.4749 27.2865 17.0036C27.475 16.9093 30.5853 18.8886 34.1668 21.3863Z" fill="#FF1648"/>
<rect x="1" y="1" width="61" height="61" rx="30.5" stroke="#FF1648" stroke-width="2"/>
</svg>
