<svg width="26" height="15" viewBox="0 0 26 15" fill="none" xmlns="http://www.w3.org/2000/svg">
<path d="M14.4413 0H2.7933C1.25698 0 0 1.25698 0 2.7933V12.2067C0 13.743 1.25698 15 2.7933 15H14.4413C15.9777 15 17.2346 13.743 17.2346 12.2067V2.7933C17.2346 1.22905 15.9777 0 14.4413 0Z" fill="black"/>
<path d="M23.4637 1.53718C23.2962 1.56511 23.1286 1.64891 22.9889 1.73271L18.6313 4.24668V10.7271L23.0168 13.2411C23.8269 13.716 24.8325 13.4366 25.3073 12.6266C25.447 12.3752 25.5308 12.0958 25.5308 11.7886V3.15729C25.5308 2.12377 24.5531 1.28578 23.4637 1.53718Z" fill="black"/>
</svg>
